<?xml version="1.0" standalone="no"?>
<!DOCTYPE svg PUBLIC "-//W3C//DTD SVG 20010904//EN"
 "http://www.w3.org/TR/2001/REC-SVG-20010904/DTD/svg10.dtd">
<svg version="1.0" xmlns="http://www.w3.org/2000/svg"
 width="202.000000pt" height="202.000000pt" viewBox="0 0 202.000000 202.000000"
 preserveAspectRatio="xMidYMid meet">
<metadata>
Created by potrace 1.11, written by Peter Selinger 2001-2013
</metadata>
<g transform="translate(0.000000,202.000000) scale(0.100000,-0.100000)"
fill="#000000" stroke="none">
<path d="M708 2012 l-348 -2 0 -559 c0 -322 4 -570 9 -584 12 -31 53 -72 92
-93 69 -35 269 -68 404 -67 11 0 192 1 402 2 l382 1 0 562 c-1 308 -4 571 -9
582 -14 37 -72 85 -128 106 -139 52 -209 57 -804 52z"/>
<path d="M919 646 c-25 -12 -40 -52 -28 -76 4 -9 23 -22 43 -30 22 -8 36 -21
36 -31 0 -25 -28 -32 -40 -9 -6 11 -19 20 -29 20 -14 0 -17 -6 -13 -25 4 -26
26 -43 50 -39 6 1 23 2 37 3 14 0 29 10 35 22 19 34 4 67 -40 89 -42 22 -54
50 -20 50 11 0 20 -7 20 -15 0 -17 9 -19 30 -5 38 24 -38 68 -81 46z"/>
<path d="M1557 640 c-18 -15 -22 -28 -22 -84 0 -86 18 -104 97 -97 36 3 52
131 20 171 -22 28 -67 32 -95 10z m65 -32 c3 -7 5 -35 4 -63 -1 -44 -4 -50
-23 -53 -24 -4 -26 1 -25 63 0 59 2 65 21 65 10 0 21 -6 23 -12z"/>
<path d="M377 598 c1 -29 2 -74 2 -100 1 -41 3 -46 21 -41 16 4 19 13 18 54
-1 48 11 84 13 41 1 -12 2 -25 3 -29 1 -5 6 -23 10 -41 12 -49 37 -27 57 50
l17 63 -1 -60 c-1 -64 6 -87 26 -79 8 3 12 34 12 99 l0 95 -31 0 c-30 0 -32
-2 -44 -62 l-13 -63 -8 40 c-19 88 -17 85 -52 85 l-32 0 2 -52z"/>
<path d="M585 558 c0 -51 4 -94 8 -95 33 -12 37 -3 37 92 0 92 -1 95 -23 95
-22 0 -23 -3 -22 -92z"/>
<path d="M657 567 c1 -45 2 -88 2 -94 1 -7 9 -13 19 -13 16 0 18 8 17 55 -2
64 2 63 30 -8 15 -38 27 -52 41 -52 17 0 19 9 22 98 3 92 2 97 -18 97 -18 0
-20 -7 -21 -57 l-1 -58 -20 58 c-17 50 -23 57 -46 57 l-27 0 2 -83z"/>
<path d="M820 550 c0 -97 0 -99 21 -91 19 7 22 15 21 77 -1 117 0 114 -22 114
-19 0 -20 -7 -20 -100z"/>
<path d="M1027 643 c-11 -10 13 -32 29 -26 11 4 14 -10 14 -77 0 -79 1 -81 22
-78 22 3 23 7 21 81 -3 75 -2 78 19 75 14 -2 22 3 24 15 2 15 -6 17 -60 17
-35 0 -66 -3 -69 -7z"/>
<path d="M1171 556 l0 -95 27 -3 c47 -5 92 3 92 18 0 8 -6 14 -12 15 -7 1 -24
2 -38 2 -18 2 -25 8 -25 22 0 15 8 21 33 23 23 2 32 8 32 21 0 14 -7 18 -29
16 -24 -2 -30 2 -34 22 -4 21 -1 24 22 23 41 -3 48 -1 48 15 0 12 -13 15 -58
15 l-58 0 0 -94z"/>
<path d="M1309 598 c-2 -91 3 -133 14 -140 19 -11 27 2 27 43 0 33 3 40 18 37
11 -2 18 -14 20 -33 5 -37 19 -56 38 -48 11 4 13 15 8 42 -8 45 -8 59 -1 93 8
40 -14 58 -74 58 l-49 0 -1 -52z m81 -3 c0 -18 -5 -25 -20 -25 -15 0 -20 7
-20 25 0 18 5 25 20 25 15 0 20 -7 20 -25z"/>
<path d="M1465 558 c0 -73 3 -94 15 -99 26 -11 30 0 30 97 0 91 -1 94 -23 94
-22 0 -23 -3 -22 -92z"/>
<path d="M429 423 c-39 -10 -56 -76 -50 -205 2 -55 42 -98 91 -98 59 0 88 18
100 59 16 57 14 63 -22 59 -28 -2 -34 -8 -36 -31 -2 -15 -12 -32 -22 -37 -31
-17 -50 22 -50 105 0 83 19 122 51 105 10 -6 19 -21 19 -34 0 -20 5 -23 33
-22 29 1 32 3 29 31 -5 57 -70 88 -143 68z"/>
<path d="M622 416 c-5 -6 -8 -74 -8 -151 l1 -139 88 -1 88 -1 -3 26 c-3 23 -7
25 -55 25 -48 -1 -52 1 -55 26 -7 44 3 54 52 54 41 0 45 2 45 25 0 23 -3 25
-47 24 -48 0 -48 0 -48 33 0 33 1 33 48 34 26 1 51 1 55 0 4 -1 6 11 4 26 -4
27 -5 27 -80 29 -46 0 -80 -4 -85 -10z"/>
<path d="M831 416 c-11 -14 -11 -286 0 -287 53 -7 54 -6 54 56 0 55 2 60 24
63 30 5 41 -6 42 -43 3 -72 8 -81 42 -80 18 1 31 6 31 11 -1 5 -5 34 -8 64 -4
30 -12 60 -20 65 -10 8 -9 14 6 29 32 34 17 108 -24 122 -36 12 -137 12 -147
0z m110 -45 c13 -2 17 -40 5 -56 -14 -19 -56 -28 -57 -12 -1 7 -2 27 -3 45 -1
29 1 32 24 28 14 -2 28 -5 31 -5z"/>
<path d="M1066 421 c-6 -11 -4 -291 3 -292 3 -1 43 -2 89 -3 82 -1 82 -1 82
25 0 24 -2 25 -55 24 l-55 -1 0 41 0 42 50 -2 c49 -1 50 -1 47 24 -4 24 -8 26
-50 25 -47 -1 -47 -1 -47 32 0 20 5 34 13 35 6 0 30 1 51 2 29 2 40 7 42 19 1
10 -3 21 -9 25 -14 9 -156 13 -161 4z"/>
<path d="M1274 276 l1 -150 25 0 c25 0 25 0 29 104 l3 105 27 -105 c26 -106
27 -107 70 -101 4 0 16 41 27 91 10 50 20 90 24 90 3 0 5 -37 5 -82 -1 -46 1
-88 2 -94 3 -9 28 -12 53 -5 7 1 7 291 0 292 -3 1 -24 2 -47 3 -45 2 -43 4
-58 -74 -25 -134 -26 -134 -49 -26 l-22 100 -45 1 -46 2 1 -151z"/>
<path d="M1592 279 c-1 -82 2 -149 6 -150 4 0 17 -2 30 -5 12 -2 23 -1 23 4 4
27 4 284 -1 290 -3 4 -17 8 -31 8 l-26 1 -1 -148z"/>
<path d="M369 87 c0 -1 -2 -21 -3 -44 l-2 -43 653 0 653 0 0 44 0 44 -650 1
c-357 0 -650 -1 -651 -2z"/>
</g>
</svg>
