<svg id="Layer_1" data-name="Layer 1" xmlns="http://www.w3.org/2000/svg" viewBox="0 0 68.29 78.55"><defs><style>.cls-1{fill:#fff;}</style></defs><title>rdhfreshW</title><path class="cls-1" d="M71.17,89.55,56.45,67.4l1.67-1.1L72.83,88.45ZM55.81,81.44,49.12,71.09,50.8,70l6.69,10.35ZM20.54,77.9h-2V49.6h2Zm8-5h-2V49.6h2Zm15-10.51L35.59,50.14l1.68-1.08L45.18,61.3ZM50.86,59,43,47.25l1.39-.33a20,20,0,0,0,10.9-6.34A16,16,0,0,0,59.21,30c0-5.4-1.74-9.49-5.33-12.49S45.29,13,39,13H20.54V42.69h-2V11H39c6.75,0,12.19,1.68,16.15,5s6,8.08,6,14a17.91,17.91,0,0,1-4.38,11.85,21.47,21.47,0,0,1-10.59,6.62l6.29,9.42ZM37.65,43.62H26.55V18h11.3c10,0,15.06,4.22,15.06,12.53a12,12,0,0,1-4.3,9.42A16.2,16.2,0,0,1,37.65,43.62Zm-9.1-2h9.1a14.24,14.24,0,0,0,9.65-3.2,10,10,0,0,0,3.61-7.91C50.91,23.42,46.64,20,37.85,20h-9.3Z" transform="translate(-4.54 -11)"/><path class="cls-1" d="M6.54,88.9h-2L5,11h7.54v2H7Zm8-5h-2V48.72H37.12l.39.7v1.3h-23ZM38,43.69H12.55V11h2V41.69H38Z" transform="translate(-4.54 -11)"/><path class="cls-1" d="M41.82,62.84H37V52h2v8.86h2.85c4.18,0,7.38-1.3,9.79-4s3.62-6.5,3.62-11.34A24.34,24.34,0,0,0,55,41.8l2-.31a27.05,27.05,0,0,1,.29,4c0,5.35-1.39,9.61-4.13,12.67S46.53,62.84,41.82,62.84ZM39,42.61H37V28.16h4.85a14.51,14.51,0,0,1,10.57,4L51,33.57a12.42,12.42,0,0,0-9.17-3.41H39Z" transform="translate(-4.54 -11)"/><path class="cls-1" d="M42,67H31.54V49.72h2V65H42c5.57,0,10.18-1.71,13.71-5.08S61,51.71,61,45.51a21.94,21.94,0,0,0-2.26-10.3l1.77-.93A24,24,0,0,1,63,45.51c0,6.77-2,12.1-5.93,15.85S48.08,67,42,67ZM33.54,42.69h-2V24H41.75a23.86,23.86,0,0,1,9.94,2l-.83,1.82A21.72,21.72,0,0,0,41.75,26H33.54Z" transform="translate(-4.54 -11)"/><path class="cls-1" d="M40.44,73H28.23V71H40.44c7.26,0,13.29-2.24,17.92-6.65s7-10.74,7-18.83c0-9.8-2.94-13.71-5.78-17.48l-.33-.44,1.6-1.2.33.44c2.9,3.85,6.18,8.21,6.18,18.68,0,8.66-2.55,15.48-7.57,20.27S48.24,73,40.44,73Z" transform="translate(-4.54 -11)"/></svg>